PathFileType	4	(X/Y/Z)	Patient4_TMGait_0pt4_01_left_24.trc.trc
DataRate	CameraRate	NumFrames	NumMarkers	Units	OrigDataRate	OrigDataStartFrame	OrigNumFrames
76.923076923077	76.923076923077	4	33	mm	76.923076923077	106	       141
Frame#	Time	Sacral			L.Shoulder			Chest			R.Shoulder			Neck			R.ASIS			L.ASIS			R.Thigh.Superior			R.Thigh.Lateral			R.Thigh.Inferior			R.Patella			L.Thigh.Superior			L.Thigh.Lateral			L.Thigh.Inferior			L.Patella			L.Shank.Superior			L.Shank.Lateral			L.Shank.Inferior			R.Shank.Superior			R.Shank.Lateral			R.Shank.Inferior			R.Heel			R.Midfoot.Superior			R.Midfoot.Lateral			R.Toe			L.Heel			L.Midfoot.Lateral			L.Midfoot.Superior			L.Toe			L.Elbow			L.Wrist			R.Elbow			R.Wrist			
		X1	Y1	Z1	X2	Y2	Z2	X3	Y3	Z3	X4	Y4	Z4	X5	Y5	Z5	X6	Y6	Z6	X7	Y7	Z7	X8	Y8	Z8	X9	Y9	Z9	X10	Y10	Z10	X11	Y11	Z11	X12	Y12	Z12	X13	Y13	Z13	X14	Y14	Z14	X15	Y15	Z15	X16	Y16	Z16	X17	Y17	Z17	X18	Y18	Z18	X19	Y19	Z19	X20	Y20	Z20	X21	Y21	Z21	X22	Y22	Z22	X23	Y23	Z23	X24	Y24	Z24	X25	Y25	Z25	X26	Y26	Z26	X27	Y27	Z27	X28	Y28	Z28	X29	Y29	Z29	X30	Y30	Z30	X31	Y31	Z31	X32	Y32	Z32	X33	Y33	Z33	

106	30.295000000000	820.000123304764	1008.297716434464	517.197876232011	977.421784548771	1432.255977281656	309.714097597566	1098.417913606450	1367.801212921154	459.393271889942	1036.460457507822	1449.966858642095	638.441385967811	989.859343581012	1498.737843598026	463.595111854232	1057.706662195182	943.564179592810	612.869679412205	1018.631890729186	970.458395860803	341.446159425634	1080.822125068848	736.278467869634	579.077415415186	994.133534468192	632.450533095233	644.479766297674	1060.916838770449	575.104052063882	559.728911532031	1053.070586544747	489.426035209933	563.546586766522	1111.111198403195	797.660758976506	367.199939357913	1074.332902003375	667.738897863544	287.363893850232	1184.993642523105	614.794103335982	342.478351032777	1207.863794460648	531.247966219876	333.981204496029	1158.559276878258	455.891176285301	326.857841780584	1033.126906008278	377.262084137602	281.965963455217	1061.470961480583	248.248893539524	332.440104806473	1022.385266062329	402.057716271670	571.834570510683	950.388764081822	301.719158180549	637.349065815616	981.979327829416	205.459837430298	570.556738843129	838.561174975489	43.556395263461	549.132921991919	1011.877963180499	96.625540438501	576.521305028599	924.907067501553	37.285139380377	619.988309598782	1132.749651964693	42.231198738238	599.815433822576	900.732539849519	134.026671739238	377.325046207930	963.070424979049	106.071962011027	293.050531650934	1062.865660295683	141.521191458492	309.485011108860	1165.014594019737	54.632751623348	274.502897193562	912.769003536157	1081.742354625517	208.233891363312	974.962407736528	829.259950190386	174.571086365132	1081.691165653579	1116.669251739235	783.009124826522	1299.969501590646	1004.326035482436	710.707377506926	
107	30.308000000000	819.106746364212	1009.144021344819	518.424876512917	976.410571212572	1432.552554531555	310.565938785313	1098.505772723384	1367.497372247628	459.082382588886	1038.575734547483	1449.852329364124	638.693585752063	990.280080160771	1498.832146398785	464.317870625984	1057.062523273223	943.168923136470	612.385171508223	1016.498638401365	970.916369045744	341.223259169717	1077.673482853298	735.574226112662	578.102587353175	990.739418087267	632.486509627784	644.567386995855	1056.204287708287	574.568095766920	559.317574644065	1047.720460885925	489.255156174399	563.382679785542	1108.491152153197	798.358759989666	367.500917393063	1072.540301805668	668.384834089334	287.452597962380	1182.425429947148	615.514843207069	343.905922125633	1206.580303911839	533.660091742913	334.950777508493	1160.894785674476	457.782322629402	327.170719258694	1040.804383998699	371.927432730477	281.493122915628	1077.101640471896	244.439764063595	331.549967975989	1017.097614892998	401.995490197514	571.856455910767	945.180048735295	301.635749273859	637.456237026693	976.628796317195	205.431145883237	570.615466866171	833.235333151241	43.478455069950	549.171932855835	1006.561688894713	96.598336935617	576.549971085209	919.620724701056	37.237304042741	620.058242771621	1127.443259401930	42.283576780007	599.822736988652	924.045449816576	119.674953204053	375.853486266999	988.169102685301	96.343784467151	291.519034585980	1085.447612308639	138.067861311785	308.207509841251	1193.112935855681	58.382773557339	273.001840011039	907.622870192288	1082.569893935917	209.920488231559	965.000354611750	829.146172132999	175.832633928211	1088.888554729735	1116.675896827040	781.271446689718	1308.994179399334	1011.484946874997	704.701298689664	
108	30.321000000000	818.229953392048	1009.780696126754	519.465298152606	975.460227345044	1432.669468616751	311.248099032946	1098.587784007867	1367.019200433887	458.645983022457	1040.568660785716	1449.524447073974	638.786400169546	990.692779206198	1498.751703874835	464.885978518937	1056.448275200681	942.676137403681	611.767855748932	1014.505594298909	971.082905190481	340.852627411596	1074.695299647122	734.836770944097	577.146417450614	987.556257590135	632.421513867866	644.643539931095	1051.760319576521	574.000729276291	558.940295959093	1042.665451567814	489.003217013888	563.287343607463	1105.674837759224	798.403697486189	367.801924382891	1070.534686989298	668.569658379900	287.348510193733	1179.253015944175	615.446397060448	345.547767068422	1204.646766352650	535.466449896743	336.042836064687	1162.627969418658	459.309458284768	327.536229110256	1048.493782138068	366.462678545944	280.711061756458	1092.493438617489	240.977828389963	330.630607163831	1012.040089942716	401.833825260761	571.899163048224	940.138833870718	301.489613859913	637.575038853517	971.367645836110	205.322019238160	570.675137136129	827.918239659322	43.391534620605	549.210765973695	1001.243029277815	96.559394988532	576.577763404251	914.340067577770	37.185302575661	620.126209818678	1122.144339744833	42.320898628689	599.832401543538	947.577135812927	106.261902637628	373.922575143117	1013.533469044140	87.400613810118	289.871677843917	1107.907979519221	135.191858086393	307.075490271971	1220.712341759441	62.760497138800	272.314068735735	902.614820524758	1083.251137701721	211.451122434918	955.579721711535	829.058804713186	176.980470461107	1095.762440168160	1116.497961572771	779.279896843545	1317.362007315378	1018.329868721845	698.523238274555	
109	30.334000000000	817.380164641552	1010.195228657102	520.311418584148	974.579019513235	1432.612320848168	311.737878124835	1098.653432499924	1366.379668975147	458.082346461755	1042.397417294490	1448.994800820496	638.714043172849	991.091758405984	1498.504484044285	465.281806457085	1055.868840214273	942.103649976465	611.044112223481	1012.674014852510	970.951509853118	340.351389597550	1071.949477681537	734.072681405070	576.268420686030	984.610035003802	632.250720967870	644.698105640866	1047.648702353857	573.403101075701	558.609877497903	1037.962119380712	488.660757359635	563.242355526745	1102.720570846830	797.840744153766	368.097351472575	1068.362361556435	668.340498187344	287.029514110262	1175.601433759646	614.680674004019	347.272806871648	1202.181593963881	536.716348520866	337.176767483187	1163.798792047213	460.505951787323	327.923488337318	1056.078827409475	361.084281301358	279.647395116485	1107.326195762750	238.030027202732	329.740097368850	1007.255303191232	401.568020871410	571.946797618346	935.297448219387	301.286221839131	637.693439551933	966.218935108775	205.132493286194	570.727644692638	822.613739022246	43.302338228923	549.250597116511	995.927456078838	96.510743457485	576.604166272325	909.065686304299	37.131719569212	620.191207949430	1116.854714805267	42.343030736393	599.846292305317	970.771230963173	94.190661962798	371.644188650037	1038.608545967672	79.517350329626	288.225528847478	1129.775483079220	133.033886907138	306.171060435698	1247.245755203706	67.712052678306	272.544984553350	897.786201222399	1083.779110322281	212.821439235090	946.727266875071	828.961614564442	178.005733494932	1102.308200248475	1116.140400489899	777.039035220425	1325.067326929369	1024.796763749997	692.201642690031	
